{
  "source": "C:\\Users\\Peter\\Desktop\\stuff\\MIUN\\quantitative_research\\video_compression\\videos\\BVI-HD\\BVI-HD_CDVL_videos\\ORIG\\Diver_1920x1080_30fps.mp4",
  "output": "C:\\Users\\Peter\\Desktop\\stuff\\MIUN\\quantitative_research\\video_compression\\compressed_videos\\BVI-HD\\vp9\\3\\Diver_1920x1080_30fps_vp9.webm",
  "codec": "vp9",
  "ok": "Input #0, mov,mp4,m4a,3gp,3g2,mj2, from 'C:\\Users\\Peter\\Desktop\\stuff\\MIUN\\quantitative_research\\video_compression\\videos\\BVI-HD\\BVI-HD_CDVL_videos\\ORIG\\Diver_1920x1080_30fps.mp4':\n  Metadata:\n    major_brand     : isom\n    minor_version   : 512\n    compatible_brands: isomiso2avc1mp41\n    encoder         : Lavf54.28.101\n  Duration: 00:00:05.00, start: 0.000000, bitrate: 196798 kb/s\n  Stream #0:0[0x1](und): Video: h264 (High 4:4:4 Predictive) (avc1 / 0x31637661), yuv420p(progressive), 1920x1080, 196794 kb/s, 30 fps, 30 tbr, 30 tbn (default)\n    Metadata:\n      handler_name    : VideoHandler\n      vendor_id       : [0][0][0][0]\n[out#0/webm @ 000002686ac89380] Codec AVOption b:a (set bitrate (in bits/s)) has not been used for any stream. The most likely reason is either wrong type (e.g. a video option with no video streams) or that it is a private option of some decoder which was not actually used for any stream.\nStream mapping:\n  Stream #0:0 -> #0:0 (h264 (native) -> vp9 (libvpx-vp9))\nPress [q] to stop, [?] for help\n[libvpx-vp9 @ 000002686b431440] v1.15.2-100-g40561f514\nOutput #0, webm, to 'C:\\Users\\Peter\\Desktop\\stuff\\MIUN\\quantitative_research\\video_compression\\compressed_videos\\BVI-HD\\vp9\\3\\Diver_1920x1080_30fps_vp9.webm':\n  Metadata:\n    major_brand     : isom\n    minor_version   : 512\n    compatible_brands: isomiso2avc1mp41\n    encoder         : Lavf62.3.100\n  Stream #0:0(und): Video: vp9, yuv420p(tv, progressive), 1920x1080, q=2-31, 3000 kb/s, 30 fps, 1k tbn (default)\n    Metadata:\n      encoder         : Lavc62.11.100 libvpx-vp9\n      handler_name    : VideoHandler\n      vendor_id       : [0][0][0][0]\n    Side data:\n      cpb: bitrate max/min/avg: 0/0/0 buffer size: 3000000 vbv_delay: N/A\nframe=    0 fps=0.0 q=0.0 size=       0KiB time=N/A bitrate=N/A speed=N/A elapsed=0:00:00.52    \nframe=    8 fps=7.4 q=26.0 size=       1KiB time=00:00:00.26 bitrate=  19.0kbits/s speed=0.247x elapsed=0:00:01.08    \nframe=   13 fps=8.0 q=23.0 size=       1KiB time=00:00:00.43 bitrate=  11.7kbits/s speed=0.268x elapsed=0:00:01.61    \nframe=   19 fps=8.9 q=25.0 size=       1KiB time=00:00:00.63 bitrate=   8.0kbits/s speed=0.296x elapsed=0:00:02.14    \nframe=   24 fps=8.9 q=24.0 size=       1KiB time=00:00:00.80 bitrate=   6.3kbits/s speed=0.298x elapsed=0:00:02.68    \nframe=   30 fps=9.4 q=25.0 size=       1KiB time=00:00:01.00 bitrate=   5.1kbits/s speed=0.312x elapsed=0:00:03.20    \nframe=   34 fps=9.1 q=25.0 size=       1KiB time=00:00:01.13 bitrate=   4.5kbits/s speed=0.302x elapsed=0:00:03.75    \nframe=   40 fps=9.4 q=26.0 size=       1KiB time=00:00:01.33 bitrate=   3.8kbits/s speed=0.313x elapsed=0:00:04.26    \nframe=   45 fps=9.4 q=25.0 size=       1KiB time=00:00:01.50 bitrate=   3.4kbits/s speed=0.314x elapsed=0:00:04.78    \nframe=   50 fps=9.4 q=27.0 size=       1KiB time=00:00:01.66 bitrate=   3.0kbits/s speed=0.314x elapsed=0:00:05.30    \nframe=   54 fps=9.3 q=28.0 size=       1KiB time=00:00:01.80 bitrate=   2.8kbits/s speed=0.309x elapsed=0:00:05.82    \nframe=   58 fps=9.1 q=29.0 size=       1KiB time=00:00:01.93 bitrate=   2.6kbits/s speed=0.305x elapsed=0:00:06.34    \nframe=   64 fps=9.3 q=28.0 size=       1KiB time=00:00:02.13 bitrate=   2.4kbits/s speed=0.31x elapsed=0:00:06.87    \nframe=   68 fps=9.2 q=28.0 size=       1KiB time=00:00:02.26 bitrate=   2.2kbits/s speed=0.305x elapsed=0:00:07.42    \nframe=   73 fps=9.2 q=27.0 size=       1KiB time=00:00:02.43 bitrate=   2.1kbits/s speed=0.306x elapsed=0:00:07.94    \nframe=   78 fps=9.2 q=29.0 size=       1KiB time=00:00:02.60 bitrate=   2.0kbits/s speed=0.307x elapsed=0:00:08.45    \nframe=   82 fps=9.1 q=30.0 size=       1KiB time=00:00:02.73 bitrate=   1.9kbits/s speed=0.304x elapsed=0:00:08.99    \nframe=   87 fps=9.1 q=30.0 size=       1KiB time=00:00:02.90 bitrate=   1.7kbits/s speed=0.304x elapsed=0:00:09.52    \nframe=   92 fps=9.1 q=29.0 size=       1KiB time=00:00:03.06 bitrate=   1.7kbits/s speed=0.305x elapsed=0:00:10.05    \nframe=   97 fps=9.2 q=29.0 size=       1KiB time=00:00:03.23 bitrate=   1.6kbits/s speed=0.305x elapsed=0:00:10.58    \nframe=  102 fps=9.2 q=30.0 size=       1KiB time=00:00:03.40 bitrate=   1.5kbits/s speed=0.306x elapsed=0:00:11.10    \nframe=  107 fps=9.2 q=17.0 size=       1KiB time=00:00:03.56 bitrate=   1.4kbits/s speed=0.307x elapsed=0:00:11.62    \nframe=  112 fps=9.2 q=33.0 size=       1KiB time=00:00:03.73 bitrate=   1.4kbits/s speed=0.308x elapsed=0:00:12.13    \nframe=  117 fps=9.2 q=35.0 size=       1KiB time=00:00:03.90 bitrate=   1.3kbits/s speed=0.308x elapsed=0:00:12.66    \nframe=  122 fps=9.2 q=37.0 size=       1KiB time=00:00:04.06 bitrate=   1.2kbits/s speed=0.308x elapsed=0:00:13.19    \nframe=  126 fps=9.2 q=37.0 size=       1KiB time=00:00:04.20 bitrate=   1.2kbits/s speed=0.306x elapsed=0:00:13.71    \nframe=  126 fps=8.9 q=37.0 size=       1KiB time=00:00:04.20 bitrate=   1.2kbits/s speed=0.295x elapsed=0:00:14.21    \nframe=  126 fps=8.6 q=37.0 size=       1KiB time=00:00:04.20 bitrate=   1.2kbits/s speed=0.285x elapsed=0:00:14.73    \nframe=  126 fps=8.3 q=37.0 size=       1KiB time=00:00:04.20 bitrate=   1.2kbits/s speed=0.275x elapsed=0:00:15.25    \nframe=  126 fps=8.0 q=37.0 size=       1KiB time=00:00:04.20 bitrate=   1.2kbits/s speed=0.266x elapsed=0:00:15.76    \n[out#0/webm @ 000002686ac89380] video:1502KiB audio:0KiB subtitle:0KiB other streams:0KiB global headers:0KiB muxing overhead: 0.114985%\nframe=  150 fps=9.4 q=37.0 Lsize=    1504KiB time=00:00:05.00 bitrate=2464.4kbits/s speed=0.314x elapsed=0:00:15.91    \n",
  "seconds": 16.13514494895935,
  "probe_out": {}
}